<?xml version="1.0" encoding="UTF-8" standalone="no"?>
<!-- Created with Inkscape (http://www.inkscape.org/) -->

<svg
   xmlns:dc="http://purl.org/dc/elements/1.1/"
   xmlns:cc="http://creativecommons.org/ns#"
   xmlns:rdf="http://www.w3.org/1999/02/22-rdf-syntax-ns#"
   xmlns:svg="http://www.w3.org/2000/svg"
   xmlns="http://www.w3.org/2000/svg"
   xmlns:sodipodi="http://sodipodi.sourceforge.net/DTD/sodipodi-0.dtd"
   xmlns:inkscape="http://www.inkscape.org/namespaces/inkscape"
   width="493.54001"
   height="332.94"
   id="svg7320"
   version="1.1"
   inkscape:version="0.47 r22583"
   sodipodi:docname="clus9.pdf">
  <defs
     id="defs3">
    <inkscape:perspective
       sodipodi:type="inkscape:persp3d"
       inkscape:vp_x="0 : 526.18109 : 1"
       inkscape:vp_y="0 : 1000 : 0"
       inkscape:vp_z="744.09448 : 526.18109 : 1"
       inkscape:persp3d-origin="372.04724 : 350.78739 : 1"
       id="perspective7326" />
    <inkscape:perspective
       id="perspective7207"
       inkscape:persp3d-origin="0.5 : 0.33333333 : 1"
       inkscape:vp_z="1 : 0.5 : 1"
       inkscape:vp_y="0 : 1000 : 0"
       inkscape:vp_x="0 : 0.5 : 1"
       sodipodi:type="inkscape:persp3d" />
    <inkscape:perspective
       id="perspective7983"
       inkscape:persp3d-origin="0.5 : 0.33333333 : 1"
       inkscape:vp_z="1 : 0.5 : 1"
       inkscape:vp_y="0 : 1000 : 0"
       inkscape:vp_x="0 : 0.5 : 1"
       sodipodi:type="inkscape:persp3d" />
    <clipPath
       clipPathUnits="userSpaceOnUse"
       id="clipPath7813">
      <path
         d="m 70.85,88.13 396.86,0 0,345.02 -396.86,0 0,-345.02 z"
         id="path7815" />
    </clipPath>
    <clipPath
       clipPathUnits="userSpaceOnUse"
       id="clipPath7793">
      <path
         d="M 0,0 504,0 504,504 0,504 0,0 z"
         id="path7795" />
    </clipPath>
    <clipPath
       clipPathUnits="userSpaceOnUse"
       id="clipPath7703">
      <path
         d="m 70.85,88.13 396.86,0 0,345.02 -396.86,0 0,-345.02 z"
         id="path7705" />
    </clipPath>
  </defs>
  <sodipodi:namedview
     inkscape:document-units="mm"
     id="base"
     pagecolor="#ffffff"
     bordercolor="#666666"
     borderopacity="1.0"
     inkscape:pageopacity="0.0"
     inkscape:pageshadow="2"
     inkscape:zoom="0.7"
     inkscape:cx="-0.20653268"
     inkscape:cy="-0.48801715"
     inkscape:current-layer="layer1"
     showgrid="false"
     inkscape:window-width="1276"
     inkscape:window-height="756"
     inkscape:window-x="0"
     inkscape:window-y="0"
     inkscape:window-maximized="1" />
  <metadata
     id="metadata4">
    <rdf:RDF>
      <cc:Work
         rdf:about="">
        <dc:format>image/svg+xml</dc:format>
        <dc:type
           rdf:resource="http://purl.org/dc/dcmitype/StillImage" />
        <dc:title></dc:title>
      </cc:Work>
    </rdf:RDF>
  </metadata>
  <g
     inkscape:label="Layer 1"
     inkscape:groupmode="layer"
     id="layer1"
     transform="translate(-223.22692,-35.127712)">
    <g
       id="g7553"
       transform="matrix(1.5837015,0,0,1.5837015,-427.74931,-465.67729)">
      <path
         id="path6981"
         style="fill:none;stroke:#000000;stroke-width:1.80000007;stroke-linecap:butt;stroke-linejoin:miter;stroke-miterlimit:10;stroke-opacity:1;stroke-dasharray:none"
         d="m 453.61252,493.96587 4.86,0" />
      <path
         id="path6983"
         style="fill:#d7efc5;fill-opacity:1;fill-rule:nonzero;stroke:none"
         d="m 444.74564,481.15025 22.59375,0 0,6.73125 -22.59375,0 0,-6.73125 z" />
      <path
         id="path6985"
         style="fill:none;stroke:#000000;stroke-width:1.80000007;stroke-linecap:butt;stroke-linejoin:miter;stroke-miterlimit:10;stroke-opacity:1;stroke-dasharray:none"
         d="m 453.61252,484.51587 4.86,0" />
      <path
         id="path6987"
         style="fill:#d7efc5;fill-opacity:1;fill-rule:nonzero;stroke:none"
         d="m 444.74564,471.70025 22.59375,0 0,6.73125 -22.59375,0 0,-6.73125 z" />
      <path
         id="path6989"
         style="fill:none;stroke:#000000;stroke-width:1.80000007;stroke-linecap:butt;stroke-linejoin:miter;stroke-miterlimit:10;stroke-opacity:1;stroke-dasharray:none"
         d="m 453.61252,475.06587 4.86,0" />
      <path
         id="path6991"
         style="fill:#d7efc5;fill-opacity:1;fill-rule:nonzero;stroke:none"
         d="m 444.74564,462.25025 22.59375,0 0,6.73125 -22.59375,0 0,-6.73125 z" />
      <path
         id="path6993"
         style="fill:none;stroke:#000000;stroke-width:1.80000007;stroke-linecap:butt;stroke-linejoin:miter;stroke-miterlimit:10;stroke-opacity:1;stroke-dasharray:none"
         d="m 453.61252,465.61587 4.86,0" />
      <path
         id="path6995"
         style="fill:#d7efc5;fill-opacity:1;fill-rule:nonzero;stroke:none"
         d="m 444.74564,452.80025 22.59375,0 0,6.73125 -22.59375,0 0,-6.73125 z" />
      <path
         id="path6997"
         style="fill:none;stroke:#000000;stroke-width:1.80000007;stroke-linecap:butt;stroke-linejoin:miter;stroke-miterlimit:10;stroke-opacity:1;stroke-dasharray:none"
         d="m 453.61252,456.16587 4.86,0" />
      <path
         id="path6999"
         style="fill:#d7efc5;fill-opacity:1;fill-rule:nonzero;stroke:none"
         d="m 444.74564,443.35025 22.59375,0 0,6.73125 -22.59375,0 0,-6.73125 z" />
      <path
         id="path7001"
         style="fill:none;stroke:#000000;stroke-width:1.80000007;stroke-linecap:butt;stroke-linejoin:miter;stroke-miterlimit:10;stroke-opacity:1;stroke-dasharray:none"
         d="m 453.61252,446.71587 4.86,0" />
      <path
         id="path7003"
         style="fill:#c8d8fa;fill-opacity:1;fill-rule:nonzero;stroke:none"
         d="m 444.74564,433.90025 22.59375,0 0,6.73125 -22.59375,0 0,-6.73125 z" />
      <path
         id="path7005"
         style="fill:none;stroke:#000000;stroke-width:1.80000007;stroke-linecap:butt;stroke-linejoin:miter;stroke-miterlimit:10;stroke-opacity:1;stroke-dasharray:none"
         d="m 453.61252,437.26587 4.86,0" />
      <path
         id="path7007"
         style="fill:#d7efc5;fill-opacity:1;fill-rule:nonzero;stroke:none"
         d="m 444.74564,424.45025 22.59375,0 0,6.73125 -22.59375,0 0,-6.73125 z" />
      <path
         id="path7009"
         style="fill:none;stroke:#000000;stroke-width:1.80000007;stroke-linecap:butt;stroke-linejoin:miter;stroke-miterlimit:10;stroke-opacity:1;stroke-dasharray:none"
         d="m 453.61252,427.81587 4.86,0" />
      <path
         id="path7011"
         style="fill:#d7efc5;fill-opacity:1;fill-rule:nonzero;stroke:none"
         d="m 444.74564,415.00025 22.59375,0 0,6.73125 -22.59375,0 0,-6.73125 z" />
      <path
         id="path7013"
         style="fill:none;stroke:#000000;stroke-width:1.80000007;stroke-linecap:butt;stroke-linejoin:miter;stroke-miterlimit:10;stroke-opacity:1;stroke-dasharray:none"
         d="m 453.61252,418.36587 4.86,0" />
      <path
         id="path7015"
         style="fill:#d7efc5;fill-opacity:1;fill-rule:nonzero;stroke:none"
         d="m 444.74564,405.55025 22.59375,0 0,6.73125 -22.59375,0 0,-6.73125 z" />
      <path
         id="path7017"
         style="fill:none;stroke:#000000;stroke-width:1.80000007;stroke-linecap:butt;stroke-linejoin:miter;stroke-miterlimit:10;stroke-opacity:1;stroke-dasharray:none"
         d="m 453.61252,408.91587 4.86,0" />
      <path
         id="path7019"
         style="fill:#c8d8fa;fill-opacity:1;fill-rule:nonzero;stroke:none"
         d="m 444.74564,396.10025 22.59375,0 0,6.73125 -22.59375,0 0,-6.73125 z" />
      <path
         id="path7021"
         style="fill:none;stroke:#000000;stroke-width:1.80000007;stroke-linecap:butt;stroke-linejoin:miter;stroke-miterlimit:10;stroke-opacity:1;stroke-dasharray:none"
         d="m 453.61252,399.46587 4.86,0" />
      <path
         id="path7023"
         style="fill:#d7efc5;fill-opacity:1;fill-rule:nonzero;stroke:none"
         d="m 444.74564,386.65024 22.59375,0 0,6.73126 -22.59375,0 0,-6.73126 z" />
      <path
         id="path7025"
         style="fill:none;stroke:#000000;stroke-width:1.80000007;stroke-linecap:butt;stroke-linejoin:miter;stroke-miterlimit:10;stroke-opacity:1;stroke-dasharray:none"
         d="m 453.61252,390.01587 4.86,0" />
      <path
         id="path7027"
         style="fill:#c8d8fa;fill-opacity:1;fill-rule:nonzero;stroke:none"
         d="m 444.74564,377.20024 22.59375,0 0,6.73125 -22.59375,0 0,-6.73125 z" />
      <path
         id="path7029"
         style="fill:none;stroke:#000000;stroke-width:1.80000007;stroke-linecap:butt;stroke-linejoin:miter;stroke-miterlimit:10;stroke-opacity:1;stroke-dasharray:none"
         d="m 453.61252,380.56587 4.86,0" />
      <path
         id="path7031"
         style="fill:none;stroke:#000000;stroke-width:1.80000007;stroke-linecap:butt;stroke-linejoin:miter;stroke-miterlimit:10;stroke-opacity:1;stroke-dasharray:none"
         d="m 453.61252,371.11587 4.86,0" />
      <text
         id="text7033"
         x="428.35568"
         y="504.01364"
         style="font-size:15px">
        <tspan
           id="tspan7035"
           y="504.01364"
           x="428.35568"
           style="font-size:9.375px;font-variant:normal;font-weight:normal;writing-mode:lr-tb;fill:#807b88;fill-opacity:1;fill-rule:nonzero;stroke:none;font-family:Helvetica;-inkscape-font-specification:Helvetica">M</tspan>
      </text>
      <text
         id="text7037"
         x="437.80566"
         y="504.01364"
         style="font-size:15px">
        <tspan
           id="tspan7039"
           y="504.01364"
           x="437.80566"
           style="font-size:9.375px;font-variant:normal;font-weight:normal;writing-mode:lr-tb;fill:#000000;fill-opacity:1;fill-rule:nonzero;stroke:none;font-family:Helvetica;-inkscape-font-specification:Helvetica">M</tspan>
      </text>
      <text
         id="text7041"
         x="445.00815"
         y="497.33148"
         style="font-size:15px">
        <tspan
           id="tspan7043"
           y="497.33148"
           x="445.00815"
           style="font-size:9.375px;font-variant:normal;font-weight:normal;writing-mode:lr-tb;fill:#000000;fill-opacity:1;fill-rule:nonzero;stroke:none;font-family:Helvetica;-inkscape-font-specification:Helvetica">R</tspan>
      </text>
      <text
         id="text7045"
         x="445.26596"
         y="487.8815"
         style="font-size:15px">
        <tspan
           id="tspan7047"
           y="487.8815"
           x="445.26596"
           style="font-size:9.375px;font-variant:normal;font-weight:normal;writing-mode:lr-tb;fill:#d90000;fill-opacity:1;fill-rule:nonzero;stroke:none;font-family:Helvetica;-inkscape-font-specification:Helvetica">A</tspan>
      </text>
      <text
         id="text7049"
         x="445.00815"
         y="478.43149"
         style="font-size:15px">
        <tspan
           id="tspan7051"
           y="478.43149"
           x="445.00815"
           style="font-size:9.375px;font-variant:normal;font-weight:normal;writing-mode:lr-tb;fill:#d90000;fill-opacity:1;fill-rule:nonzero;stroke:none;font-family:Helvetica;-inkscape-font-specification:Helvetica">U</tspan>
      </text>
      <text
         id="text7053"
         x="444.74564"
         y="468.98151"
         style="font-size:15px">
        <tspan
           id="tspan7055"
           y="468.98151"
           x="444.74564"
           style="font-size:9.375px;font-variant:normal;font-weight:normal;writing-mode:lr-tb;fill:#d90000;fill-opacity:1;fill-rule:nonzero;stroke:none;font-family:Helvetica;-inkscape-font-specification:Helvetica">G</tspan>
      </text>
      <text
         id="text7057"
         x="445.00815"
         y="459.53149"
         style="font-size:15px">
        <tspan
           id="tspan7059"
           y="459.53149"
           x="445.00815"
           style="font-size:9.375px;font-variant:normal;font-weight:normal;writing-mode:lr-tb;fill:#d90000;fill-opacity:1;fill-rule:nonzero;stroke:none;font-family:Helvetica;-inkscape-font-specification:Helvetica">C</tspan>
      </text>
      <text
         id="text7061"
         x="445.00815"
         y="450.08151"
         style="font-size:15px">
        <tspan
           id="tspan7063"
           y="450.08151"
           x="445.00815"
           style="font-size:9.375px;font-variant:normal;font-weight:normal;writing-mode:lr-tb;fill:#d90000;fill-opacity:1;fill-rule:nonzero;stroke:none;font-family:Helvetica;-inkscape-font-specification:Helvetica">C</tspan>
      </text>
      <text
         id="text7065"
         x="444.74564"
         y="440.6315"
         style="font-size:15px">
        <tspan
           id="tspan7067"
           y="440.6315"
           x="444.74564"
           style="font-size:9.375px;font-variant:normal;font-weight:normal;writing-mode:lr-tb;fill:#d90000;fill-opacity:1;fill-rule:nonzero;stroke:none;font-family:Helvetica;-inkscape-font-specification:Helvetica">G</tspan>
      </text>
      <text
         id="text7069"
         x="445.00815"
         y="431.18149"
         style="font-size:15px">
        <tspan
           id="tspan7071"
           y="431.18149"
           x="445.00815"
           style="font-size:9.375px;font-variant:normal;font-weight:normal;writing-mode:lr-tb;fill:#d90000;fill-opacity:1;fill-rule:nonzero;stroke:none;font-family:Helvetica;-inkscape-font-specification:Helvetica">U</tspan>
      </text>
      <text
         id="text7073"
         x="445.00815"
         y="421.73151"
         style="font-size:15px">
        <tspan
           id="tspan7075"
           y="421.73151"
           x="445.00815"
           style="font-size:9.375px;font-variant:normal;font-weight:normal;writing-mode:lr-tb;fill:#d90000;fill-opacity:1;fill-rule:nonzero;stroke:none;font-family:Helvetica;-inkscape-font-specification:Helvetica">C</tspan>
      </text>
      <text
         id="text7077"
         x="445.00815"
         y="412.28149"
         style="font-size:15px">
        <tspan
           id="tspan7079"
           y="412.28149"
           x="445.00815"
           style="font-size:9.375px;font-variant:normal;font-weight:normal;writing-mode:lr-tb;fill:#d90000;fill-opacity:1;fill-rule:nonzero;stroke:none;font-family:Helvetica;-inkscape-font-specification:Helvetica">U</tspan>
      </text>
      <text
         id="text7081"
         x="444.74564"
         y="402.83151"
         style="font-size:15px">
        <tspan
           id="tspan7083"
           y="402.83151"
           x="444.74564"
           style="font-size:9.375px;font-variant:normal;font-weight:normal;writing-mode:lr-tb;fill:#d90000;fill-opacity:1;fill-rule:nonzero;stroke:none;font-family:Helvetica;-inkscape-font-specification:Helvetica">G</tspan>
      </text>
      <text
         id="text7085"
         x="445.26596"
         y="393.3815"
         style="font-size:15px">
        <tspan
           id="tspan7087"
           y="393.3815"
           x="445.26596"
           style="font-size:9.375px;font-variant:normal;font-weight:normal;writing-mode:lr-tb;fill:#d90000;fill-opacity:1;fill-rule:nonzero;stroke:none;font-family:Helvetica;-inkscape-font-specification:Helvetica">A</tspan>
      </text>
      <text
         id="text7089"
         x="445.26596"
         y="383.93149"
         style="font-size:15px">
        <tspan
           id="tspan7091"
           y="383.93149"
           x="445.26596"
           style="font-size:9.375px;font-variant:normal;font-weight:normal;writing-mode:lr-tb;fill:#d90000;fill-opacity:1;fill-rule:nonzero;stroke:none;font-family:Helvetica;-inkscape-font-specification:Helvetica">A</tspan>
      </text>
      <text
         id="text7093"
         x="445.00815"
         y="374.48151"
         style="font-size:15px">
        <tspan
           id="tspan7095"
           y="374.48151"
           x="445.00815"
           style="font-size:9.375px;font-variant:normal;font-weight:normal;writing-mode:lr-tb;fill:#000000;fill-opacity:1;fill-rule:nonzero;stroke:none;font-family:Helvetica;-inkscape-font-specification:Helvetica">R</tspan>
      </text>
      <text
         id="text7097"
         x="438.31802"
         y="367.80728"
         style="font-size:15px">
        <tspan
           id="tspan7099"
           y="367.80728"
           x="438.31802"
           style="font-size:9.375px;font-variant:normal;font-weight:normal;writing-mode:lr-tb;fill:#807b88;fill-opacity:1;fill-rule:nonzero;stroke:none;font-family:Helvetica;-inkscape-font-specification:Helvetica">C</tspan>
      </text>
      <text
         id="text7101"
         x="436.46616"
         y="358.54053"
         style="font-size:15px">
        <tspan
           id="tspan7103"
           y="358.54053"
           x="436.46616"
           style="font-size:9.375px;font-variant:normal;font-weight:normal;writing-mode:lr-tb;fill:#807b88;fill-opacity:1;fill-rule:nonzero;stroke:none;font-family:Helvetica;-inkscape-font-specification:Helvetica">C</tspan>
      </text>
      <text
         id="text7105"
         x="440.07733"
         y="349.80771"
         style="font-size:15px">
        <tspan
           id="tspan7107"
           y="349.80771"
           x="440.07733"
           style="font-size:9.375px;font-variant:normal;font-weight:normal;writing-mode:lr-tb;fill:#807b88;fill-opacity:1;fill-rule:nonzero;stroke:none;font-family:Helvetica;-inkscape-font-specification:Helvetica">C</tspan>
      </text>
      <text
         id="text7109"
         x="447.93314"
         y="344.55524"
         style="font-size:15px">
        <tspan
           id="tspan7111"
           y="344.55524"
           x="447.93314"
           style="font-size:9.375px;font-variant:normal;font-weight:normal;writing-mode:lr-tb;fill:#000000;fill-opacity:1;fill-rule:nonzero;stroke:none;font-family:Helvetica;-inkscape-font-specification:Helvetica">H</tspan>
      </text>
      <text
         id="text7113"
         x="456.86282"
         y="344.55524"
         style="font-size:15px">
        <tspan
           id="tspan7115"
           y="344.55524"
           x="456.86282"
           style="font-size:9.375px;font-variant:normal;font-weight:normal;writing-mode:lr-tb;fill:#000000;fill-opacity:1;fill-rule:nonzero;stroke:none;font-family:Helvetica;-inkscape-font-specification:Helvetica">M</tspan>
      </text>
      <text
         id="text7117"
         x="465.49677"
         y="349.80771"
         style="font-size:15px">
        <tspan
           id="tspan7119"
           y="349.80771"
           x="465.49677"
           style="font-size:9.375px;font-variant:normal;font-weight:normal;writing-mode:lr-tb;fill:#807b88;fill-opacity:1;fill-rule:nonzero;stroke:none;font-family:Helvetica;-inkscape-font-specification:Helvetica">S</tspan>
      </text>
      <text
         id="text7121"
         x="469.10794"
         y="358.54053"
         style="font-size:15px">
        <tspan
           id="tspan7123"
           y="358.54053"
           x="469.10794"
           style="font-size:9.375px;font-variant:normal;font-weight:normal;writing-mode:lr-tb;fill:#807b88;fill-opacity:1;fill-rule:nonzero;stroke:none;font-family:Helvetica;-inkscape-font-specification:Helvetica">S</tspan>
      </text>
      <text
         id="text7125"
         x="466.73575"
         y="367.80728"
         style="font-size:15px">
        <tspan
           id="tspan7127"
           y="367.80728"
           x="466.73575"
           style="font-size:9.375px;font-variant:normal;font-weight:normal;writing-mode:lr-tb;fill:#000000;fill-opacity:1;fill-rule:nonzero;stroke:none;font-family:Helvetica;-inkscape-font-specification:Helvetica">G</tspan>
      </text>
      <text
         id="text7129"
         x="460.30814"
         y="374.48151"
         style="font-size:15px">
        <tspan
           id="tspan7131"
           y="374.48151"
           x="460.30814"
           style="font-size:9.375px;font-variant:normal;font-weight:normal;writing-mode:lr-tb;fill:#d90000;fill-opacity:1;fill-rule:nonzero;stroke:none;font-family:Helvetica;-inkscape-font-specification:Helvetica">U</tspan>
      </text>
      <text
         id="text7133"
         x="460.30814"
         y="383.93149"
         style="font-size:15px">
        <tspan
           id="tspan7135"
           y="383.93149"
           x="460.30814"
           style="font-size:9.375px;font-variant:normal;font-weight:normal;writing-mode:lr-tb;fill:#d90000;fill-opacity:1;fill-rule:nonzero;stroke:none;font-family:Helvetica;-inkscape-font-specification:Helvetica">U</tspan>
      </text>
      <text
         id="text7137"
         x="460.30814"
         y="393.3815"
         style="font-size:15px">
        <tspan
           id="tspan7139"
           y="393.3815"
           x="460.30814"
           style="font-size:9.375px;font-variant:normal;font-weight:normal;writing-mode:lr-tb;fill:#d90000;fill-opacity:1;fill-rule:nonzero;stroke:none;font-family:Helvetica;-inkscape-font-specification:Helvetica">U</tspan>
      </text>
      <text
         id="text7141"
         x="460.30814"
         y="402.83151"
         style="font-size:15px">
        <tspan
           id="tspan7143"
           y="402.83151"
           x="460.30814"
           style="font-size:9.375px;font-variant:normal;font-weight:normal;writing-mode:lr-tb;fill:#d90000;fill-opacity:1;fill-rule:nonzero;stroke:none;font-family:Helvetica;-inkscape-font-specification:Helvetica">C</tspan>
      </text>
      <text
         id="text7145"
         x="460.56595"
         y="412.28149"
         style="font-size:15px">
        <tspan
           id="tspan7147"
           y="412.28149"
           x="460.56595"
           style="font-size:9.375px;font-variant:normal;font-weight:normal;writing-mode:lr-tb;fill:#d90000;fill-opacity:1;fill-rule:nonzero;stroke:none;font-family:Helvetica;-inkscape-font-specification:Helvetica">A</tspan>
      </text>
      <text
         id="text7149"
         x="460.04565"
         y="421.73151"
         style="font-size:15px">
        <tspan
           id="tspan7151"
           y="421.73151"
           x="460.04565"
           style="font-size:9.375px;font-variant:normal;font-weight:normal;writing-mode:lr-tb;fill:#d90000;fill-opacity:1;fill-rule:nonzero;stroke:none;font-family:Helvetica;-inkscape-font-specification:Helvetica">G</tspan>
      </text>
      <text
         id="text7153"
         x="460.56595"
         y="431.18149"
         style="font-size:15px">
        <tspan
           id="tspan7155"
           y="431.18149"
           x="460.56595"
           style="font-size:9.375px;font-variant:normal;font-weight:normal;writing-mode:lr-tb;fill:#d90000;fill-opacity:1;fill-rule:nonzero;stroke:none;font-family:Helvetica;-inkscape-font-specification:Helvetica">A</tspan>
      </text>
      <text
         id="text7157"
         x="460.30814"
         y="440.6315"
         style="font-size:15px">
        <tspan
           id="tspan7159"
           y="440.6315"
           x="460.30814"
           style="font-size:9.375px;font-variant:normal;font-weight:normal;writing-mode:lr-tb;fill:#d90000;fill-opacity:1;fill-rule:nonzero;stroke:none;font-family:Helvetica;-inkscape-font-specification:Helvetica">C</tspan>
      </text>
      <text
         id="text7161"
         x="460.04565"
         y="450.08151"
         style="font-size:15px">
        <tspan
           id="tspan7163"
           y="450.08151"
           x="460.04565"
           style="font-size:9.375px;font-variant:normal;font-weight:normal;writing-mode:lr-tb;fill:#d90000;fill-opacity:1;fill-rule:nonzero;stroke:none;font-family:Helvetica;-inkscape-font-specification:Helvetica">G</tspan>
      </text>
      <text
         id="text7165"
         x="460.04565"
         y="459.53149"
         style="font-size:15px">
        <tspan
           id="tspan7167"
           y="459.53149"
           x="460.04565"
           style="font-size:9.375px;font-variant:normal;font-weight:normal;writing-mode:lr-tb;fill:#d90000;fill-opacity:1;fill-rule:nonzero;stroke:none;font-family:Helvetica;-inkscape-font-specification:Helvetica">G</tspan>
      </text>
      <text
         id="text7169"
         x="460.30814"
         y="468.98151"
         style="font-size:15px">
        <tspan
           id="tspan7171"
           y="468.98151"
           x="460.30814"
           style="font-size:9.375px;font-variant:normal;font-weight:normal;writing-mode:lr-tb;fill:#d90000;fill-opacity:1;fill-rule:nonzero;stroke:none;font-family:Helvetica;-inkscape-font-specification:Helvetica">C</tspan>
      </text>
      <text
         id="text7173"
         x="460.56595"
         y="478.43149"
         style="font-size:15px">
        <tspan
           id="tspan7175"
           y="478.43149"
           x="460.56595"
           style="font-size:9.375px;font-variant:normal;font-weight:normal;writing-mode:lr-tb;fill:#d90000;fill-opacity:1;fill-rule:nonzero;stroke:none;font-family:Helvetica;-inkscape-font-specification:Helvetica">A</tspan>
      </text>
      <text
         id="text7177"
         x="460.30814"
         y="487.8815"
         style="font-size:15px">
        <tspan
           id="tspan7179"
           y="487.8815"
           x="460.30814"
           style="font-size:9.375px;font-variant:normal;font-weight:normal;writing-mode:lr-tb;fill:#d90000;fill-opacity:1;fill-rule:nonzero;stroke:none;font-family:Helvetica;-inkscape-font-specification:Helvetica">U</tspan>
      </text>
      <text
         id="text7181"
         x="460.30814"
         y="497.33148"
         style="font-size:15px">
        <tspan
           id="tspan7183"
           y="497.33148"
           x="460.30814"
           style="font-size:9.375px;font-variant:normal;font-weight:normal;writing-mode:lr-tb;fill:#d90000;fill-opacity:1;fill-rule:nonzero;stroke:none;font-family:Helvetica;-inkscape-font-specification:Helvetica">U</tspan>
      </text>
      <text
         id="text7185"
         x="466.9903"
         y="504.01364"
         style="font-size:15px">
        <tspan
           id="tspan7187"
           y="504.01364"
           x="466.9903"
           style="font-size:9.375px;font-variant:normal;font-weight:normal;writing-mode:lr-tb;fill:#d90000;fill-opacity:1;fill-rule:nonzero;stroke:none;font-family:Helvetica;-inkscape-font-specification:Helvetica">U</tspan>
      </text>
      <text
         id="text7189"
         x="476.44031"
         y="504.01364"
         style="font-size:15px">
        <tspan
           id="tspan7191"
           y="504.01364"
           x="476.44031"
           style="font-size:9.375px;font-variant:normal;font-weight:normal;writing-mode:lr-tb;fill:#000000;fill-opacity:1;fill-rule:nonzero;stroke:none;font-family:Helvetica;-inkscape-font-specification:Helvetica">U</tspan>
      </text>
      <path
         id="path7193"
         style="fill:none;stroke:#000000;stroke-width:1.875;stroke-linecap:butt;stroke-linejoin:miter;stroke-miterlimit:10;stroke-opacity:1;stroke-dasharray:none"
         d="m 422.81036,500.64803 4.725,0" />
      <text
         id="text7195"
         x="413.93222"
         y="504.01364"
         style="font-size:15px">
        <tspan
           id="tspan7197"
           sodipodi:role="line"
           y="504.01364"
           x="413.93222 419.14474"
           style="font-size:9.375px;font-variant:normal;font-weight:normal;writing-mode:lr-tb;fill:#000000;fill-opacity:1;fill-rule:nonzero;stroke:none;font-family:Helvetica;-inkscape-font-specification:Helvetica">5´</tspan>
      </text>
    </g>
    <g
       id="g8234"
       transform="matrix(0.56281038,0,0,0.56281038,261.93742,-196.75288)">
      <g
         id="g7699"
         transform="matrix(1.25,0,0,-1.25,210.09036,1016.6481)">
        <g
           clip-path="url(#clipPath7703)"
           id="g7701">
          <path
             id="path7707"
             style="fill:none;stroke:#0000ff;stroke-width:2.25;stroke-linecap:round;stroke-linejoin:round;stroke-miterlimit:10;stroke-opacity:1;stroke-dasharray:none"
             d="m 85.55,375.8 2.62,0 2.63,-7.43 2.62,0 2.63,0 2.62,-7.43 2.63,0 2.62,7.43 2.62,0 2.63,0 2.62,-7.43 2.63,-7.43 2.62,0 2.63,0 2.62,-7.43 2.63,0 2.62,-7.43 2.63,-7.43 2.62,0 2.63,-7.43 2.62,7.43 2.63,-7.43 2.62,0 2.63,0 2.62,-7.43 2.63,0 2.62,-7.43 2.63,-7.43 2.62,7.43 2.62,0 2.63,0 2.62,0 2.63,0 2.62,0 2.63,0 2.62,7.43 2.63,-7.43 2.62,0 2.63,0 2.62,-7.43 2.63,0 2.62,7.43 2.63,-7.43 2.62,0 2.63,0 2.62,7.43 2.63,0 2.62,-7.43 2.63,0 2.62,-7.43 2.62,0 2.63,-7.43 2.62,0 2.63,0 2.62,0 2.63,-7.43 2.62,0 2.63,0 2.62,-7.43 2.63,-7.43 2.62,0 2.63,0 2.62,-7.42 2.63,0 2.62,0 2.63,0 2.62,-7.43 2.63,-7.43 2.62,-7.43 2.63,0 2.62,-81.06 2.62,-52.67 2.63,0 2.62,0 2.63,0 2.62,0 2.63,0 2.62,0 2.63,0 2.62,0 2.63,0 2.62,0 2.63,0 2.62,0 2.63,0 2.62,0 2.63,0 2.62,0 2.63,0 2.62,0 2.63,0 2.62,0 2.62,0 2.63,0 2.62,0 2.63,0 2.62,0 2.63,0 2.62,0 2.63,0 2.62,0 2.63,0 2.62,0 2.63,0 2.62,0 2.63,0 2.62,0 2.63,0 2.62,0 2.63,0 2.62,0 2.63,0 2.62,0 2.62,0 2.63,0 2.62,0 2.63,0 2.62,0 2.63,0 2.62,0 2.63,0 2.62,0 2.63,0 2.62,0 2.63,0 2.62,0 2.63,0 2.62,0 2.63,0 2.62,0 2.63,0 2.62,0 2.63,0 2.62,0 2.62,0 2.63,0 2.62,0 2.63,0 2.62,0 2.63,0 2.62,0" />
        </g>
      </g>
      <g
         id="g7709"
         transform="matrix(1.25,0,0,-1.25,210.09036,1016.6481)">
        <path
           id="path7711"
           style="fill:none;stroke:#000000;stroke-width:0.75;stroke-linecap:round;stroke-linejoin:round;stroke-miterlimit:10;stroke-opacity:1;stroke-dasharray:none"
           d="m 111.79,88.13 314.98,0" />
        <path
           id="path7713"
           style="fill:none;stroke:#000000;stroke-width:0.75;stroke-linecap:round;stroke-linejoin:round;stroke-miterlimit:10;stroke-opacity:1;stroke-dasharray:none"
           d="m 111.79,88.13 0,-8.64" />
        <path
           id="path7715"
           style="fill:none;stroke:#000000;stroke-width:0.75;stroke-linecap:round;stroke-linejoin:round;stroke-miterlimit:10;stroke-opacity:1;stroke-dasharray:none"
           d="m 164.29,88.13 0,-8.64" />
        <path
           id="path7717"
           style="fill:none;stroke:#000000;stroke-width:0.75;stroke-linecap:round;stroke-linejoin:round;stroke-miterlimit:10;stroke-opacity:1;stroke-dasharray:none"
           d="m 216.78,88.13 0,-8.64" />
        <path
           id="path7719"
           style="fill:none;stroke:#000000;stroke-width:0.75;stroke-linecap:round;stroke-linejoin:round;stroke-miterlimit:10;stroke-opacity:1;stroke-dasharray:none"
           d="m 269.28,88.13 0,-8.64" />
        <path
           id="path7721"
           style="fill:none;stroke:#000000;stroke-width:0.75;stroke-linecap:round;stroke-linejoin:round;stroke-miterlimit:10;stroke-opacity:1;stroke-dasharray:none"
           d="m 321.78,88.13 0,-8.64" />
        <path
           id="path7723"
           style="fill:none;stroke:#000000;stroke-width:0.75;stroke-linecap:round;stroke-linejoin:round;stroke-miterlimit:10;stroke-opacity:1;stroke-dasharray:none"
           d="m 374.27,88.13 0,-8.64" />
        <path
           id="path7725"
           style="fill:none;stroke:#000000;stroke-width:0.75;stroke-linecap:round;stroke-linejoin:round;stroke-miterlimit:10;stroke-opacity:1;stroke-dasharray:none"
           d="m 426.77,88.13 0,-8.64" />
        <text
           id="text7727"
           transform="matrix(1,0,0,-1,99.92,57.02)">
          <tspan
             id="tspan7729"
             sodipodi:role="line"
             y="0"
             x="0 8.1759996 15.96"
             style="font-size:14px;font-variant:normal;font-weight:normal;writing-mode:lr-tb;fill:#000000;fill-opacity:1;fill-rule:nonzero;stroke:none;font-family:Helvetica;-inkscape-font-specification:Helvetica">−60</tspan>
        </text>
        <text
           id="text7731"
           transform="matrix(1,0,0,-1,152.42,57.02)">
          <tspan
             id="tspan7733"
             sodipodi:role="line"
             y="0"
             x="0 8.1759996 15.96"
             style="font-size:14px;font-variant:normal;font-weight:normal;writing-mode:lr-tb;fill:#000000;fill-opacity:1;fill-rule:nonzero;stroke:none;font-family:Helvetica;-inkscape-font-specification:Helvetica">−40</tspan>
        </text>
        <text
           id="text7735"
           transform="matrix(1,0,0,-1,204.91,57.02)">
          <tspan
             id="tspan7737"
             sodipodi:role="line"
             y="0"
             x="0 8.1759996 15.96"
             style="font-size:14px;font-variant:normal;font-weight:normal;writing-mode:lr-tb;fill:#000000;fill-opacity:1;fill-rule:nonzero;stroke:none;font-family:Helvetica;-inkscape-font-specification:Helvetica">−20</tspan>
        </text>
        <text
           id="text7739"
           transform="matrix(1,0,0,-1,265.39,57.02)">
          <tspan
             id="tspan7741"
             y="0"
             x="0"
             style="font-size:14px;font-variant:normal;font-weight:normal;writing-mode:lr-tb;fill:#000000;fill-opacity:1;fill-rule:nonzero;stroke:none;font-family:Helvetica;-inkscape-font-specification:Helvetica">0</tspan>
        </text>
        <text
           id="text7743"
           transform="matrix(1,0,0,-1,313.99,57.02)">
          <tspan
             id="tspan7745"
             sodipodi:role="line"
             y="0"
             x="0 7.7839999"
             style="font-size:14px;font-variant:normal;font-weight:normal;writing-mode:lr-tb;fill:#000000;fill-opacity:1;fill-rule:nonzero;stroke:none;font-family:Helvetica;-inkscape-font-specification:Helvetica">20</tspan>
        </text>
        <text
           id="text7747"
           transform="matrix(1,0,0,-1,366.49,57.02)">
          <tspan
             id="tspan7749"
             sodipodi:role="line"
             y="0"
             x="0 7.7839999"
             style="font-size:14px;font-variant:normal;font-weight:normal;writing-mode:lr-tb;fill:#000000;fill-opacity:1;fill-rule:nonzero;stroke:none;font-family:Helvetica;-inkscape-font-specification:Helvetica">40</tspan>
        </text>
        <text
           id="text7751"
           transform="matrix(1,0,0,-1,418.98,57.02)">
          <tspan
             id="tspan7753"
             sodipodi:role="line"
             y="0"
             x="0 7.7839999"
             style="font-size:14px;font-variant:normal;font-weight:normal;writing-mode:lr-tb;fill:#000000;fill-opacity:1;fill-rule:nonzero;stroke:none;font-family:Helvetica;-inkscape-font-specification:Helvetica">60</tspan>
        </text>
        <path
           id="path7755"
           style="fill:none;stroke:#000000;stroke-width:0.75;stroke-linecap:round;stroke-linejoin:round;stroke-miterlimit:10;stroke-opacity:1;stroke-dasharray:none"
           d="m 70.85,100.91 0,297.17" />
        <path
           id="path7757"
           style="fill:none;stroke:#000000;stroke-width:0.75;stroke-linecap:round;stroke-linejoin:round;stroke-miterlimit:10;stroke-opacity:1;stroke-dasharray:none"
           d="m 70.85,100.91 -8.64,0" />
        <path
           id="path7759"
           style="fill:none;stroke:#000000;stroke-width:0.75;stroke-linecap:round;stroke-linejoin:round;stroke-miterlimit:10;stroke-opacity:1;stroke-dasharray:none"
           d="m 70.85,175.2 -8.64,0" />
        <path
           id="path7761"
           style="fill:none;stroke:#000000;stroke-width:0.75;stroke-linecap:round;stroke-linejoin:round;stroke-miterlimit:10;stroke-opacity:1;stroke-dasharray:none"
           d="m 70.85,249.5 -8.64,0" />
        <path
           id="path7763"
           style="fill:none;stroke:#000000;stroke-width:0.75;stroke-linecap:round;stroke-linejoin:round;stroke-miterlimit:10;stroke-opacity:1;stroke-dasharray:none"
           d="m 70.85,323.79 -8.64,0" />
        <path
           id="path7765"
           style="fill:none;stroke:#000000;stroke-width:0.75;stroke-linecap:round;stroke-linejoin:round;stroke-miterlimit:10;stroke-opacity:1;stroke-dasharray:none"
           d="m 70.85,398.08 -8.64,0" />
        <text
           id="text7767"
           transform="matrix(1,0,0,-1,45.78,95.88)">
          <tspan
             id="tspan7769"
             y="0"
             x="0"
             style="font-size:14px;font-variant:normal;font-weight:normal;writing-mode:lr-tb;fill:#000000;fill-opacity:1;fill-rule:nonzero;stroke:none;font-family:Helvetica;-inkscape-font-specification:Helvetica">0</tspan>
        </text>
        <text
           id="text7771"
           transform="matrix(1,0,0,-1,38,170.18)">
          <tspan
             id="tspan7773"
             sodipodi:role="line"
             y="0"
             x="0 7.7839999"
             style="font-size:14px;font-variant:normal;font-weight:normal;writing-mode:lr-tb;fill:#000000;fill-opacity:1;fill-rule:nonzero;stroke:none;font-family:Helvetica;-inkscape-font-specification:Helvetica">10</tspan>
        </text>
        <text
           id="text7775"
           transform="matrix(1,0,0,-1,38,244.47)">
          <tspan
             id="tspan7777"
             sodipodi:role="line"
             y="0"
             x="0 7.7839999"
             style="font-size:14px;font-variant:normal;font-weight:normal;writing-mode:lr-tb;fill:#000000;fill-opacity:1;fill-rule:nonzero;stroke:none;font-family:Helvetica;-inkscape-font-specification:Helvetica">20</tspan>
        </text>
        <text
           id="text7779"
           transform="matrix(1,0,0,-1,38,318.76)">
          <tspan
             id="tspan7781"
             sodipodi:role="line"
             y="0"
             x="0 7.7839999"
             style="font-size:14px;font-variant:normal;font-weight:normal;writing-mode:lr-tb;fill:#000000;fill-opacity:1;fill-rule:nonzero;stroke:none;font-family:Helvetica;-inkscape-font-specification:Helvetica">30</tspan>
        </text>
        <text
           id="text7783"
           transform="matrix(1,0,0,-1,38,393.06)">
          <tspan
             id="tspan7785"
             sodipodi:role="line"
             y="0"
             x="0 7.7839999"
             style="font-size:14px;font-variant:normal;font-weight:normal;writing-mode:lr-tb;fill:#000000;fill-opacity:1;fill-rule:nonzero;stroke:none;font-family:Helvetica;-inkscape-font-specification:Helvetica">40</tspan>
        </text>
        <path
           id="path7787"
           style="fill:none;stroke:#000000;stroke-width:0.75;stroke-linecap:round;stroke-linejoin:round;stroke-miterlimit:10;stroke-opacity:1;stroke-dasharray:none"
           d="m 70.85,88.13 396.86,0 0,345.02 -396.86,0 0,-345.02" />
      </g>
      <g
         id="g7789"
         transform="matrix(1.25,0,0,-1.25,210.09036,1016.6481)">
        <g
           clip-path="url(#clipPath7793)"
           id="g7791">
          <text
             id="text7797"
             transform="matrix(1,0,0,-1,101.44,462.47)">
            <tspan
               id="tspan7799"
               sodipodi:role="line"
               y="0"
               x="0 9.6389999 21.913 36.074001 40.799999 49.911999 54.638 65.025002 74.476997 83.929001 88.654999 100.929 113.203 125.477 135.405 144.85699 154.30901 164.696 169.422 179.80901 189.261 194.922 204.37399 209.10001 214.761 219.487 228.939 239.326 248.778 253.504 263.89099 274.27802 279.004 284.66501 294.117 300.73001 315.84299 320.569 330.95599"
               style="font-size:17px;font-variant:normal;font-weight:bold;writing-mode:lr-tb;fill:#000000;fill-opacity:1;fill-rule:nonzero;stroke:none;font-family:Helvetica;-inkscape-font-specification:Helvetica-Bold">PAM clus9 RNA−seq data flanking termini</tspan>
          </text>
          <text
             id="text7801"
             transform="matrix(1,0,0,-1,189.82,22.46)">
            <tspan
               id="tspan7803"
               sodipodi:role="line"
               y="0"
               x="0 10.108 13.216 20.216 24.108 31.892 39.675999 46.675999 54.459999 58.352001 62.243999 70.028 73.919998 77.811996 85.596001 90.608002 102.27 105.378 113.162 116.27 120.162 124.824 132.468 140.252 147.252 154.252"
               style="font-size:14px;font-variant:normal;font-weight:normal;writing-mode:lr-tb;fill:#000000;fill-opacity:1;fill-rule:nonzero;stroke:none;font-family:Helvetica;-inkscape-font-specification:Helvetica">Distance to termini (nucs)</tspan>
          </text>
          <text
             id="text7805"
             transform="matrix(0,1,1,0,15.55,202.67)">
            <tspan
               id="tspan7807"
               sodipodi:role="line"
               y="0"
               x="0 11.662 19.445999 27.23 30.337999 38.122002 45.905998 49.798 54.459999 62.243999 70.028 77.811996 81.704002 88.704002 96.487999 104.272 112.056"
               style="font-size:14px;font-variant:normal;font-weight:normal;writing-mode:lr-tb;fill:#000000;fill-opacity:1;fill-rule:nonzero;stroke:none;font-family:Helvetica;-inkscape-font-specification:Helvetica">Median read count</tspan>
          </text>
        </g>
      </g>
      <g
         id="g7809"
         transform="matrix(1.25,0,0,-1.25,210.09036,1016.6481)">
        <g
           clip-path="url(#clipPath7813)"
           id="g7811">
          <path
             id="path7817"
             style="fill:none;stroke:#d3d3d3;stroke-width:1.5;stroke-linecap:round;stroke-linejoin:round;stroke-miterlimit:10;stroke-opacity:1;stroke-dasharray:4.5, 7.5;stroke-dashoffset:0"
             d="m 85.55,256.93 2.62,0 2.63,0 2.62,0 2.63,0 2.62,7.42 2.63,0 2.62,0 2.62,0 2.63,0 2.62,0 2.63,0 2.62,0 2.63,0 2.62,0 2.63,0 2.62,7.43 2.63,0 2.62,0 2.63,0 2.62,0 2.63,0 2.62,0 2.63,-7.43 2.62,7.43 2.63,-7.43 2.62,0 2.63,0 2.62,0 2.62,0 2.63,0 2.62,0 2.63,0 2.62,0 2.63,0 2.62,0 2.63,0 2.62,0 2.63,0 2.62,0 2.63,0 2.62,0 2.63,0 2.62,0 2.63,0 2.62,0 2.63,0 2.62,0 2.63,0 2.62,0 2.62,0 2.63,0 2.62,0 2.63,0 2.62,0 2.63,0 2.62,0 2.63,0 2.62,0 2.63,0 2.62,0 2.63,-7.42 2.62,0 2.63,0 2.62,0 2.63,0 2.62,0 2.63,0 2.62,-7.43 2.63,0 2.62,-7.43 2.62,-22.29 2.63,0 2.62,0 2.63,0 2.62,0 2.63,0 2.62,0 2.63,-7.43 2.62,0 2.63,0 2.62,0 2.63,0 2.62,0 2.63,0 2.62,0 2.63,0 2.62,0 2.63,0 2.62,0 2.63,0 2.62,0 2.62,0 2.63,0 2.62,0 2.63,0 2.62,0 2.63,0 2.62,0 2.63,0 2.62,0 2.63,0 2.62,0 2.63,0 2.62,0 2.63,0 2.62,0 2.63,0 2.62,0 2.63,0 2.62,0 2.63,0 2.62,0 2.62,0 2.63,0 2.62,0 2.63,0 2.62,0 2.63,0 2.62,0 2.63,0 2.62,-7.43 2.63,0 2.62,0 2.63,0 2.62,0 2.63,0 2.62,0 2.63,0 2.62,0 2.63,0 2.62,0 2.63,0 2.62,0 2.62,0 2.63,0 2.62,0 2.63,0 2.62,0 2.63,0 2.62,0" />
          <path
             id="path7819"
             style="fill:none;stroke:#d3d3d3;stroke-width:2.25;stroke-linecap:round;stroke-linejoin:round;stroke-miterlimit:10;stroke-opacity:1;stroke-dasharray:none"
             d="m 85.55,323.79 2.62,0 2.63,0 2.62,0 2.63,0 2.62,0 2.63,0 2.62,7.43 2.62,0 2.63,0 2.62,0 2.63,0 2.62,0 2.63,0 2.62,0 2.63,0 2.62,0 2.63,0 2.62,0 2.63,0 2.62,0 2.63,-7.43 2.62,7.43 2.63,-7.43 2.62,0 2.63,0 2.62,0 2.63,0 2.62,0 2.62,0 2.63,0 2.62,0 2.63,0 2.62,0 2.63,0 2.62,0 2.63,0 2.62,0 2.63,0 2.62,0 2.63,0 2.62,0 2.63,0 2.62,0 2.63,0 2.62,0 2.63,0 2.62,0 2.63,0 2.62,0 2.62,0 2.63,0 2.62,0 2.63,0 2.62,0 2.63,0 2.62,0 2.63,0 2.62,0 2.63,0 2.62,0 2.63,0 2.62,0 2.63,0 2.62,0 2.63,0 2.62,0 2.63,0 2.62,0 2.63,-7.43 2.62,-8.36 2.62,-28.79 2.63,0 2.62,0 2.63,0 2.62,0 2.63,0 2.62,0 2.63,0 2.62,0 2.63,0 2.62,0 2.63,0 2.62,0 2.63,0 2.62,0 2.63,0 2.62,0 2.63,0 2.62,0 2.63,0 2.62,0 2.62,0 2.63,0 2.62,0 2.63,0 2.62,-7.43 2.63,0 2.62,0 2.63,7.43 2.62,-7.43 2.63,0 2.62,0 2.63,0 2.62,0 2.63,0 2.62,0 2.63,0 2.62,0 2.63,0 2.62,0 2.63,0 2.62,0 2.62,0 2.63,0 2.62,0 2.63,0 2.62,0 2.63,0 2.62,0 2.63,0 2.62,0 2.63,0 2.62,0 2.63,0 2.62,0 2.63,-7.43 2.62,0 2.63,0 2.62,0 2.63,0 2.62,0 2.63,0 2.62,0 2.62,0 2.63,0 2.62,0 2.63,0 2.62,0 2.63,0 2.62,0" />
          <path
             id="path7821"
             style="fill:none;stroke:#d3d3d3;stroke-width:1.5;stroke-linecap:round;stroke-linejoin:round;stroke-miterlimit:10;stroke-opacity:1;stroke-dasharray:4.5, 7.5;stroke-dashoffset:0"
             d="m 85.55,427.8 2.62,0 2.63,-7.43 2.62,7.43 2.63,0 2.62,0 2.63,0 2.62,0 2.62,0 2.63,0 2.62,0 2.63,0 2.62,7.43 2.63,-7.43 2.62,7.43 2.63,-7.43 2.62,0 2.63,0 2.62,0 2.63,0 2.62,0 2.63,0 2.62,0 2.63,0 2.62,0 2.63,0 2.62,0 2.63,0 2.62,0 2.62,-7.43 2.63,0 2.62,0 2.63,0 2.62,7.43 2.63,0 2.62,0 2.63,0 2.62,-7.43 2.63,0 2.62,0 2.63,0 2.62,0 2.63,0 2.62,0 2.63,0 2.62,0 2.63,0 2.62,0 2.63,0 2.62,0 2.62,0 2.63,0 2.62,0 2.63,0 2.62,0 2.63,0 2.62,0 2.63,0 2.62,0 2.63,0 2.62,0 2.63,0 2.62,0 2.63,0 2.62,0 2.63,0 2.62,0 2.63,0 2.62,-6.5 2.63,6.5 2.62,-15.99 2.62,-28.58 2.63,0 2.62,0 2.63,0 2.62,0 2.63,0 2.62,0 2.63,0 2.62,0 2.63,0 2.62,0 2.63,-7.43 2.62,0 2.63,0 2.62,0 2.63,7.43 2.62,0 2.63,-7.43 2.62,0 2.63,0 2.62,0 2.62,0 2.63,0 2.62,0 2.63,0 2.62,0 2.63,0 2.62,0 2.63,0 2.62,0 2.63,0 2.62,0 2.63,0 2.62,-7.43 2.63,0 2.62,0 2.63,0 2.62,7.43 2.63,0 2.62,0 2.63,0 2.62,0 2.62,0 2.63,0 2.62,0 2.63,0 2.62,0 2.63,0 2.62,0 2.63,0 2.62,0 2.63,-7.43 2.62,7.43 2.63,-7.43 2.62,7.43 2.63,-7.43 2.62,0 2.63,0 2.62,0 2.63,0 2.62,0 2.63,0 2.62,-7.43 2.62,0 2.63,0 2.62,0 2.63,0 2.62,0 2.63,0 2.62,0" />
          <path
             id="path7823"
             style="fill:none;stroke:#000000;stroke-width:0.75;stroke-linecap:round;stroke-linejoin:round;stroke-miterlimit:10;stroke-opacity:1;stroke-dasharray:2.25, 3.75;stroke-dashoffset:0"
             d="m 269.28,0 0,504" />
          <text
             id="text7825"
             transform="matrix(1,0,0,-1,90.17,416.66)">
            <tspan
               id="tspan7827"
               sodipodi:role="line"
               y="0"
               x="0 11.662 19.445999 27.23 35.014 39.675999 47.459999 51.352001 56.014 63.798 71.582001 79.365997 86.365997 91.028 94.919998 103.096 106.988 114.772 122.556 126.448 133.448 136.556 140.448"
               style="font-size:14px;font-variant:normal;font-weight:normal;writing-mode:lr-tb;fill:#000000;fill-opacity:1;fill-rule:nonzero;stroke:none;font-family:Helvetica;-inkscape-font-specification:Helvetica">mean(# reads) &gt; 10/site</tspan>
          </text>
          <path
             id="path7829"
             style="fill:none;stroke:#000000;stroke-width:0.75;stroke-linecap:round;stroke-linejoin:round;stroke-miterlimit:10;stroke-opacity:1;stroke-dasharray:2.25, 3.75;stroke-dashoffset:0"
             d="m 269.28,383.23 -104.99,0" />
          <path
             id="path7831"
             style="fill:none;stroke:#000000;stroke-width:0.75;stroke-linecap:round;stroke-linejoin:round;stroke-miterlimit:10;stroke-opacity:1;stroke-dasharray:2.25, 3.75;stroke-dashoffset:0"
             d="m 179.88,392.23 -15.59,-9 15.59,-9" />
          <text
             id="text7833"
             transform="matrix(1,0,0,-1,330.37,415.45)">
            <tspan
               id="tspan7835"
               sodipodi:role="line"
               y="0"
               x="0 7.7839999 15.568 22.568001 30.351999 38.136002 45.136002 49.028 53.549999 61.334 64.442001 72.225998 80.010002"
               style="font-size:14px;font-variant:normal;font-weight:normal;writing-mode:lr-tb;fill:#000000;fill-opacity:1;fill-rule:nonzero;stroke:none;font-family:Helvetica;-inkscape-font-specification:Helvetica">unconstrained</tspan>
          </text>
          <path
             id="path7837"
             style="fill:none;stroke:#000000;stroke-width:0.75;stroke-linecap:round;stroke-linejoin:round;stroke-miterlimit:10;stroke-opacity:1;stroke-dasharray:2.25, 3.75;stroke-dashoffset:0"
             d="m 269.28,383.23 104.99,0" />
          <path
             id="path7839"
             style="fill:none;stroke:#000000;stroke-width:0.75;stroke-linecap:round;stroke-linejoin:round;stroke-miterlimit:10;stroke-opacity:1;stroke-dasharray:2.25, 3.75;stroke-dashoffset:0"
             d="m 358.68,374.23 15.59,9 -15.59,9" />
          <path
             id="path7841"
             style="fill:none;stroke:#0000ff;stroke-width:2.25;stroke-linecap:round;stroke-linejoin:round;stroke-miterlimit:10;stroke-opacity:1;stroke-dasharray:none"
             d="m 84.09,233.94 23.32,0" />
          <path
             id="path7843"
             style="fill:none;stroke:#d3d3d3;stroke-width:2.25;stroke-linecap:round;stroke-linejoin:round;stroke-miterlimit:10;stroke-opacity:1;stroke-dasharray:none"
             d="m 84.09,218.39 23.32,0" />
          <path
             id="path7845"
             style="fill:none;stroke:#d3d3d3;stroke-width:1.5;stroke-linecap:round;stroke-linejoin:round;stroke-miterlimit:10;stroke-opacity:1;stroke-dasharray:4.5, 7.5;stroke-dashoffset:0"
             d="m 84.09,202.84 23.32,0" />
          <text
             id="text7847"
             transform="matrix(1,0,0,-1,122.694,229.28)">
            <tspan
               id="tspan7849"
               sodipodi:role="line"
               y="0"
               x="0 7.1110001 15.782 26.611 37.452999 41.782001 51.167999 58.759998 65.987999 73.216003 80.444"
               style="font-size:13px;font-variant:normal;font-weight:normal;writing-mode:lr-tb;fill:#000000;fill-opacity:1;fill-rule:nonzero;stroke:none;font-family:Helvetica;-inkscape-font-specification:Helvetica">PAM (N=747)</tspan>
          </text>
          <text
             id="text7851"
             transform="matrix(1,0,0,-1,122.694,213.72)">
            <tspan
               id="tspan7853"
               sodipodi:role="line"
               y="0"
               x="0 8.6709995 17.341999 26.728001 37.556999 44.785 49.113998 58.5 66.092003 73.32 80.547997 87.776001 95.003998"
               style="font-size:13px;font-variant:normal;font-weight:normal;writing-mode:lr-tb;fill:#000000;fill-opacity:1;fill-rule:nonzero;stroke:none;font-family:Helvetica;-inkscape-font-specification:Helvetica">PERM (N=7462)</tspan>
          </text>
          <text
             id="text7855"
             transform="matrix(1,0,0,-1,122.694,198.17)">
            <tspan
               id="tspan7857"
               sodipodi:role="line"
               y="0"
               x="0 8.6709995 17.341999 26.728001 37.556999 44.785 49.113998 56.341999 62.841999 66.456001 69.342003 72.227997 79.456001 85.956001"
               style="font-size:13px;font-variant:normal;font-weight:normal;writing-mode:lr-tb;fill:#000000;fill-opacity:1;fill-rule:nonzero;stroke:none;font-family:Helvetica;-inkscape-font-specification:Helvetica">PERM (octiles)</tspan>
          </text>
        </g>
      </g>
    </g>
  </g>
</svg>
